<?xml version="1.0" standalone="no"?>
<!DOCTYPE svg PUBLIC "-//W3C//DTD SVG 20010904//EN"
 "http://www.w3.org/TR/2001/REC-SVG-20010904/DTD/svg10.dtd">
<svg version="1.0" xmlns="http://www.w3.org/2000/svg"
 width="500.000000pt" height="500.000000pt" viewBox="0 0 500.000000 500.000000"
 preserveAspectRatio="xMidYMid meet">

<g transform="translate(0.000000,500.000000) scale(0.100000,-0.100000)"
fill="#000000" stroke="none">
<path d="M2705 4869 c-4 -6 -5 -12 -2 -15 2 -3 7 2 10 11 7 17 1 20 -8 4z"/>
<path d="M2680 4825 c-7 -9 -11 -18 -8 -20 3 -3 11 1 18 10 7 9 11 18 8 20 -3
3 -11 -1 -18 -10z"/>
<path d="M2636 4769 c-15 -14 -16 -19 -5 -19 8 0 20 9 27 20 15 25 3 25 -22
-1z"/>
<path d="M2541 4693 c-61 -43 -175 -103 -389 -204 -64 -30 -91 -48 -87 -57 4
-10 0 -12 -11 -8 -21 8 -116 -52 -107 -68 3 -6 3 -8 -2 -4 -11 10 -36 -12 -28
-24 3 -6 0 -9 -8 -6 -8 3 -19 -5 -24 -16 -6 -12 -17 -21 -25 -21 -9 0 -14 -8
-12 -19 2 -11 -1 -16 -10 -14 -16 6 -58 -53 -58 -81 0 -12 -6 -21 -14 -21 -8
0 -19 -13 -25 -30 -5 -16 -8 -30 -5 -30 3 0 -2 -7 -10 -16 -9 -8 -16 -20 -16
-27 0 -6 7 -2 15 9 14 18 15 17 4 -8 -7 -15 -15 -25 -19 -23 -4 3 -13 -14 -19
-38 -7 -23 -15 -48 -18 -56 -3 -9 -1 -11 6 -7 6 4 11 3 11 -2 0 -6 -6 -12 -13
-15 -16 -6 -42 -131 -31 -148 4 -8 3 -10 -4 -5 -8 5 -13 -4 -14 -26 -1 -31 -3
-47 -8 -58 -4 -11 -10 -58 -14 -107 -2 -29 -6 -56 -9 -60 -11 -21 -16 -63 -7
-63 5 0 10 -5 10 -11 0 -5 -5 -7 -11 -3 -9 5 -10 -1 -5 -20 4 -16 2 -26 -4
-26 -7 0 -9 -15 -6 -39 3 -24 0 -41 -6 -43 -6 -2 -11 -27 -12 -56 -1 -28 -4
-52 -7 -52 -3 0 -14 -37 -24 -82 -62 -279 -227 -488 -384 -488 -35 0 -49 6
-75 33 -17 17 -39 43 -48 57 -16 24 -16 23 -11 -35 5 -55 3 -64 -21 -91 -14
-17 -47 -41 -74 -52 -27 -12 -84 -47 -128 -78 -191 -138 -283 -153 -379 -60
-39 37 -45 48 -45 85 0 84 42 135 210 249 65 45 93 71 118 112 51 86 37 91
-33 13 -80 -87 -130 -125 -260 -193 -139 -73 -181 -104 -209 -153 -39 -67 -54
-119 -66 -232 -24 -219 35 -287 288 -334 356 -68 592 -247 643 -490 19 -89 7
-148 -57 -284 -71 -150 -74 -189 -26 -284 18 -34 32 -69 32 -76 0 -17 -99
-112 -161 -154 -109 -75 -134 -132 -127 -289 4 -87 8 -108 31 -147 52 -87 108
-116 210 -104 67 8 140 45 235 119 42 32 113 86 156 119 44 32 73 59 65 59 -8
0 -67 -27 -132 -60 -65 -33 -127 -60 -137 -60 -10 0 -28 9 -41 19 -57 46 -11
179 96 280 75 70 221 158 315 191 122 43 145 74 162 226 11 94 11 96 47 120
67 44 127 46 300 9 82 -17 85 -17 185 4 152 31 191 26 242 -31 19 -20 44 -77
44 -99 0 -5 -28 -38 -62 -75 l-63 -67 40 9 c22 5 76 8 121 7 67 -2 100 -9 195
-45 114 -42 114 -42 243 -40 103 1 147 -3 210 -19 117 -30 219 -35 290 -15 70
21 126 54 149 90 20 29 13 34 -14 10 -33 -30 -97 -21 -182 24 -60 32 -90 42
-125 42 -131 0 -199 115 -173 293 14 100 36 148 104 220 58 62 78 108 76 178
l-1 44 -11 -33 c-6 -19 -21 -41 -34 -49 -22 -15 -29 -15 -79 1 -55 17 -175 92
-229 143 -108 99 -189 283 -190 428 0 110 18 143 123 223 49 38 100 88 126
125 81 113 127 143 190 126 20 -5 39 -10 43 -10 5 0 12 -10 16 -22 7 -18 10
-19 18 -7 8 12 9 10 4 -7 -3 -12 -1 -24 5 -28 6 -4 10 5 10 23 0 40 40 77 194
179 72 48 151 108 177 133 57 57 102 118 95 129 -3 5 2 15 12 22 15 13 16 12
3 -3 -7 -10 -11 -18 -8 -18 3 0 16 15 28 33 19 26 20 29 4 17 -18 -15 -18 -14
-1 13 18 26 35 39 20 15 -5 -9 -2 -8 10 1 9 8 15 20 12 27 -3 8 0 13 7 11 7
-1 11 4 9 11 -1 6 3 12 9 12 5 0 7 5 3 12 -4 6 -3 8 4 5 6 -4 30 20 55 55 25
35 66 85 91 113 25 27 46 53 46 57 0 4 4 8 10 8 5 0 23 12 39 28 53 48 132 94
186 106 17 4 37 13 45 20 8 6 33 18 55 25 22 8 68 27 103 42 34 16 66 29 70
29 4 0 36 24 71 53 74 60 119 132 125 198 4 48 -9 83 -26 73 -7 -5 -9 -1 -5 9
7 18 -1 21 -20 9 -6 -4 -9 -19 -6 -34 3 -15 9 -25 14 -22 5 3 9 -2 9 -10 0 -9
-5 -16 -11 -16 -6 0 -8 -14 -5 -36 4 -22 2 -33 -4 -29 -5 3 -10 1 -10 -6 0 -7
-18 -34 -40 -60 -22 -26 -36 -49 -32 -52 4 -2 1 -2 -6 -1 -15 4 -94 -45 -88
-55 2 -3 -15 -7 -39 -9 -23 -1 -56 -9 -71 -17 -16 -8 -36 -15 -45 -15 -9 0
-33 -7 -53 -15 -20 -8 -36 -12 -36 -7 0 4 -16 6 -35 4 -47 -6 -82 19 -90 62
-7 37 9 77 56 137 16 20 25 40 21 44 -4 5 -2 5 4 2 13 -8 91 64 127 118 28 42
35 61 16 49 -8 -4 -9 0 -4 15 3 11 2 28 -3 37 -8 14 -11 9 -17 -23 -8 -51 -37
-82 -59 -64 -8 7 -21 9 -27 5 -9 -5 -10 -2 -6 9 4 11 1 17 -8 17 -8 0 -15 7
-15 16 0 8 -4 12 -10 9 -5 -3 -10 -1 -10 6 0 7 -3 10 -6 6 -3 -3 -11 -2 -18 3
-6 6 -25 21 -42 35 -50 40 -52 133 -3 176 10 9 15 20 11 24 -4 5 0 6 10 2 19
-7 88 13 88 25 0 5 -9 6 -20 3 -11 -4 -20 -2 -20 4 0 6 12 11 28 11 99 2 155
8 161 19 7 10 13 10 31 -1 18 -10 24 -10 27 0 3 6 9 12 14 12 4 0 6 -7 3 -15
-7 -18 12 -20 19 -2 4 9 8 9 15 -2 16 -23 122 6 122 34 0 8 6 14 13 13 6 -2
11 3 9 10 -1 8 2 11 8 7 14 -9 42 14 33 28 -3 6 -1 7 5 3 6 -4 28 9 49 29 26
24 32 33 18 29 -16 -5 -17 -4 -5 5 8 6 21 11 28 11 16 0 72 41 72 53 0 4 -12
0 -27 -11 -23 -16 -175 -62 -255 -77 -36 -7 -150 -93 -142 -107 4 -6 -1 -8
-13 -4 -11 4 -33 2 -49 -5 -16 -6 -60 -12 -99 -15 -163 -10 -195 -14 -246 -31
-30 -10 -53 -24 -52 -30 2 -7 -3 -10 -11 -7 -23 9 -56 -57 -56 -110 0 -26 16
-102 35 -170 45 -156 41 -182 -37 -261 -29 -29 -63 -66 -75 -82 -67 -86 -195
-202 -290 -262 -30 -18 -50 -38 -46 -44 3 -5 1 -7 -5 -4 -12 8 -111 -39 -118
-56 -2 -7 -16 -13 -30 -14 -15 0 -34 -8 -43 -18 -15 -15 -15 -16 4 -10 15 5
16 4 6 -3 -7 -5 -21 -8 -30 -5 -22 5 -114 -34 -107 -46 3 -5 -6 -12 -22 -15
-15 -4 -35 -9 -46 -13 -13 -4 -16 -2 -11 7 6 10 -1 12 -31 7 -24 -4 -54 0 -79
9 -22 9 -50 18 -62 21 -13 3 -23 12 -23 19 0 14 -12 18 -37 15 -7 -1 -13 4
-13 11 0 19 -56 41 -104 41 -50 0 -114 -12 -121 -23 -3 -5 -33 -18 -68 -29
-74 -25 -135 -22 -172 7 -15 12 -32 19 -38 15 -5 -3 -7 -1 -4 4 4 6 -1 17 -10
24 -12 10 -14 10 -9 2 4 -7 2 -13 -3 -13 -6 0 -10 8 -9 18 4 30 -14 92 -26 92
-6 0 -3 5 7 11 9 5 17 19 17 30 0 28 55 109 93 137 78 57 76 53 36 46 -32 -5
-38 -2 -64 32 -19 24 -30 53 -33 84 -4 43 -2 49 24 67 16 11 56 30 89 42 82
31 125 59 118 77 -3 8 1 14 11 14 9 0 16 5 16 11 0 5 -4 8 -10 4 -5 -3 -5 6 1
24 6 16 17 32 25 35 10 4 13 13 9 29 -5 17 -2 26 10 31 11 4 15 13 12 26 -3
11 -1 20 4 20 5 0 8 10 6 23 -1 13 3 21 11 19 6 -1 12 5 12 14 0 8 -5 12 -10
9 -18 -11 -149 -45 -174 -45 -25 0 -111 -44 -122 -62 -4 -7 -2 -8 4 -4 8 5 10
2 6 -8 -3 -9 -11 -13 -17 -9 -6 4 -8 -2 -4 -15 4 -12 9 -32 12 -44 5 -22 5
-22 -5 -3 -8 16 -9 9 -6 -30 8 -96 -30 -113 -82 -37 -37 54 -84 207 -75 244 7
30 37 63 91 100 23 16 40 33 37 39 -3 5 0 6 8 3 15 -5 30 9 40 39 4 11 3 16
-3 12 -14 -9 -12 7 5 29 8 10 12 23 9 27 -3 5 2 9 11 9 12 0 15 6 10 19 -4 13
1 27 14 40 23 23 28 46 9 35 -7 -4 -5 1 4 12 53 58 79 94 74 103 -4 5 -1 13 5
17 8 4 9 3 5 -4 -4 -7 -2 -12 4 -12 7 0 9 8 5 22 -6 17 -4 20 9 15 9 -4 15 -2
13 5 -1 7 4 12 12 13 8 0 15 8 17 18 1 9 2 17 1 16 -1 0 -31 -21 -66 -46z
m-613 -914 c3 -24 80 -273 236 -764 59 -187 87 -260 97 -258 31 4 1066 301
1086 312 14 7 24 8 28 1 3 -5 -182 -211 -413 -457 -230 -247 -437 -469 -461
-495 l-42 -46 52 -174 c28 -95 100 -337 160 -537 60 -200 108 -365 107 -367
-2 -1 -203 98 -448 221 -245 123 -451 224 -458 225 -14 0 -102 -91 -556 -570
-381 -402 -374 -395 -381 -388 -3 3 -1 17 4 32 9 23 140 468 296 1001 28 99
55 190 59 201 6 20 -29 40 -423 242 -236 121 -439 223 -451 227 -11 4 -19 12
-17 18 2 7 145 53 318 104 173 50 415 122 539 158 124 37 236 70 249 74 14 4
28 18 32 32 4 13 34 119 68 234 33 116 103 356 155 535 52 179 102 354 111
390 9 36 19 68 22 73 9 15 28 1 31 -24z m2677 -69 c-3 -5 -12 -10 -18 -10 -7
0 -6 4 3 10 19 12 23 12 15 0z m-130 -60 c-27 -12 -43 -12 -25 0 8 5 22 9 30
9 10 0 8 -3 -5 -9z"/>
<path d="M3741 3924 c0 -11 3 -14 6 -6 3 7 2 16 -1 19 -3 4 -6 -2 -5 -13z"/>
<path d="M3698 3868 c-7 -13 -11 -27 -10 -31 1 -5 -2 -6 -7 -3 -13 8 -51 -56
-50 -85 0 -13 -1 -31 -2 -39 -4 -30 1 -60 12 -60 5 0 8 4 5 8 -2 4 4 13 14 20
16 10 18 9 13 -5 -4 -10 -2 -14 4 -10 6 4 13 17 16 29 3 13 15 57 26 98 26 95
26 108 0 79 -20 -24 -20 -24 -9 -1 6 12 8 22 6 22 -3 0 -11 -10 -18 -22z m-34
-73 c-9 -14 -18 -25 -21 -25 -5 0 5 18 20 38 17 22 18 13 1 -13z"/>
</g>
</svg>
